<?xml version="1.0" encoding="utf-8"?>
<!-- Generator: Adobe Illustrator 18.1.1, SVG Export Plug-In . SVG Version: 6.00 Build 0)  -->
<svg version="1.1" id="Layer_1" xmlns="http://www.w3.org/2000/svg" xmlns:xlink="http://www.w3.org/1999/xlink" x="0px" y="0px"
	 viewBox="0 0 120 60" enable-background="new 0 0 120 60" xml:space="preserve">

<g>
	<path id="path7060_1_" fill="#252525" d="M62,42.2C62,36,67,31,73.2,31c6.2,0,11.3,5,11.3,11.3c0,6.2-5.1,11.3-11.3,11.3
		C67,53.5,62,48.5,62,42.2 M73.2,51.4c5.1,0,9.2-4.1,9.2-9.2c0-5.1-4.1-9.2-9.2-9.2c-5.1,0-9.2,4.1-9.2,9.2
		C64,47.3,68.2,51.4,73.2,51.4"/>
	<path id="path7062_1_" fill="#252525" d="M95.1,42.3c0-6.2,5.1-11.3,11.3-11.3c6.2,0,11.3,5,11.3,11.3c0,6.2-5.1,11.3-11.3,11.3
		C100.2,53.6,95.1,48.6,95.1,42.3 M106.4,51.5c5.1,0,9.2-4.1,9.2-9.2s-4.1-9.2-9.2-9.2c-5.1,0-9.2,4.1-9.2,9.2
		S101.4,51.5,106.4,51.5"/>
	<path id="path7064_1_" fill="#252525" d="M94.8,14.8c2.9,0,5.1-2.8,4-5.8c-0.4-1.1-1.2-1.9-2.3-2.3c-3-1.2-5.9,1-5.9,3.9
		C90.5,12.9,92.4,14.8,94.8,14.8"/>
	<path id="path7066_1_" fill="#252525" d="M95.4,25.1c-0.6,0-1.3-0.3-1.8-1.1l-2.8-4.3l-5.7,5.6l5.3,2.8c2.2,1,1.8,2.9,1.8,2.9V43
		c0,1.4-1.1,2.5-2.4,2.5s-2.4-1.1-2.4-2.5v-9.6l-9.1-5.1c-1.1-0.6-1.8-1.8-1.8-3.1c0-0.9,0.3-1.8,0.9-2.4l9-9
		c1.1-1.3,2.7-1.1,2.7-1.1c1.9,0,2.9,1.6,2.9,1.6l4.7,7.3l7.1,0c2.5,0,2.5,3.3,0,3.3H95.4L95.4,25.1z"/>
</g>
<g>
	<path fill="#252525" d="M42.9,18.7c-0.4,0-0.8,0.2-1.1,0.4l-4.4,4.4l-5.3-5.3c-0.4-0.4-1-0.6-1.6-0.6l-8.3,0c-0.5,0-1,0.2-1.3,0.6
		l-5.7,6.6c-0.4,0.3-0.6,0.8-0.6,1.3c0,0.9,0.8,1.7,1.7,1.7c0.5,0,1-0.2,1.3-0.6l5.3-6.1l0,0l3.1,0L14.3,34.6l-7.9,0
		c-0.2,0-0.4,0-0.6,0.1c-1.2,0.3-1.9,1.4-1.7,2.6c0.2,1,1.2,1.7,2.2,1.7l9.2,0c1.9,0.1,2.7-0.8,2.7-0.8l4.5-5.1l5.3,5.1l-2.1,9.5
		c0,0.2-0.1,0.4-0.1,0.6c0,1.2,1,2.2,2.2,2.2c1.1,0,2-0.8,2.2-1.8l2.6-11.6c0.6-1.8-0.4-2.7-0.4-2.7l-4.6-4.6l5.1-5.9l3.2,3.3
		c0,0,1.3,1.4,2.9-0.2l5.3-5.3c0.3-0.3,0.4-0.7,0.4-1.1C44.6,19.5,43.9,18.7,42.9,18.7z"/>
	<path fill="#252525" d="M35.2,18.9c2.3,0,4.2-1.9,4.2-4.2c0-2.3-1.9-4.2-4.2-4.2S31,12.3,31,14.6C31,17,32.9,18.9,35.2,18.9z"/>
</g>
<g>
	<path fill="#252525" d="M52.6,23.9h-0.3c-0.5,0-0.8-0.4-0.8-0.8v-3.7c0-0.5,0.4-0.8,0.8-0.8h0.3c0.5,0,0.8,0.4,0.8,0.8v3.7
		C53.4,23.5,53,23.9,52.6,23.9z"/>
	<path fill="#252525" d="M52.6,45.3h-0.3c-0.5,0-0.8-0.4-0.8-0.8v-3.7c0-0.5,0.4-0.8,0.8-0.8h0.3c0.5,0,0.8,0.4,0.8,0.8v3.7
		C53.4,44.9,53,45.3,52.6,45.3z"/>
	<path fill="#252525" d="M55.6,36.3C55.6,36.3,55.6,36.3,55.6,36.3C55.6,36.3,55.6,36.3,55.6,36.3z"/>
	<path fill="#252525" d="M57.2,36.5c-0.2-0.7-1.3-0.3-1.6-0.2c0,0,0,0,0,0c0,0-0.1,0-0.1,0s0.3,1.7,0.8,1.5c0,0,0,0,0,0
		c0,0,0,0,0.1,0c0,0,0,0,0,0C57,37.6,57.4,37.2,57.2,36.5z"/>
	<path fill="#252525" d="M57.2,27.2c0-0.5-0.3-0.9-0.9-1.1c-2.1-1-4.2-1.2-6.4-0.3c-1.7,0.7-2.5,2.4-2,4.1c0.3,0.9,1,1.4,1.9,1.7
		c-0.3,0.2-0.6,0.3-0.9,0.5c-2.3,1.3-1.8,4.5-0.3,5.4c2.5,1.5,5.1,1.3,7.6,0.3c-0.6,0.2-0.8-1.5-0.8-1.5s0,0,0.1,0
		c-1.4,0.5-2.9,0.7-4.4,0.2c-0.6-0.2-1.1-0.5-1.3-1.1c-0.5-1.3,0.2-2.5,1.6-2.7c1.1-0.2,2.2-0.1,3.2-0.2c0,0,0,0,0,0c0,0,0,0,0,0
		c0.5,0,0.9-0.2,0.9-0.9c0,0,0,0,0,0c0,0,0-0.1,0-0.1c-0.1-0.6-1-0.6-1.1-0.6l0,0c-1,0-1.9-0.1-2.9-0.1c-0.6,0-1.6-0.7-1.7-1.6
		c-0.1-0.8,0.4-1.4,1.3-1.8c1.1-0.4,2.1-0.3,3.2,0c0.5,0.1,0.9,0.3,1.3,0.5l0,0c0,0,1.3,0.5,1.4-0.4c0,0,0,0,0,0c0,0,0,0,0-0.1
		C57.2,27.3,57.2,27.2,57.2,27.2z"/>
</g>
</svg>
